# xmcd
#
# Track frame offsets: 
#        150
#        22575
#        46950
#        66150
#        86400
#        113775
#        138075
#        160500
#        185175
#        214125
#        235125
#        262275
#        287025
#
# Disc length: 4133 seconds
#
# Revision: 1
# Processed by: cddbd v1.5.2PL0 Copyright (c) Steve Scherf et al.
# Submitted via: ExactAudioCopy v1.3
#
DISCID=b210230d
DTITLE=Wayra Nan - Instrumental
DYEAR=2014
DGENRE=Ethnic
TTITLE0=Toro Ara
TTITLE1=White Buffalo
TTITLE2=Anguayllu
TTITLE3=The last Mohican
TTITLE4=Sunquyman
TTITLE5=Samaq Punchau
TTITLE6=Qapaq Nan
TTITLE7=Love Mountain
TTITLE8=Wayrapa Muspuynin
TTITLE9=Puka Urqu
TTITLE10=Qarwa Yaku
TTITLE11=Axtu Leman Sumix
TTITLE12=Flyin Condor
EXTD=
EXTT0=
EXTT1=
EXTT2=
EXTT3=
EXTT4=
EXTT5=
EXTT6=
EXTT7=
EXTT8=
EXTT9=
EXTT10=
EXTT11=
EXTT12=
PLAYORDER=
